HIERARCHY
ROOT Hips
{
	OFFSET -0.001795 -0.223333 0.028219
	CHANNELS 6 Xposition Yposition Zposition Zrotation Yrotation Xrotation 
	JOINT LeftUpLeg
	{
		OFFSET 0.069520 -0.091406 -0.006815
		CHANNELS 3 Zrotation Yrotation Xrotation
		JOINT LeftLeg
		{
			OFFSET 0.034277 -0.375199 -0.004496
			CHANNELS 3 Zrotation Yrotation Xrotation
			JOINT LeftFoot
			{
				OFFSET -0.013596 -0.397961 -0.043693
				CHANNELS 3 Zrotation Yrotation Xrotation
				JOINT LeftToe
				{
					OFFSET 0.026358 -0.055791 0.119288
					CHANNELS 3 Zrotation Yrotation Xrotation
					End Site
					{
						OFFSET 0.000000 0.000000 0.000000
					}
				}
			}
		}
	}
	JOINT RightUpLeg
	{
		OFFSET -0.067670 -0.090522 -0.004320
		CHANNELS 3 Zrotation Yrotation Xrotation
		JOINT RightLeg
		{
			OFFSET -0.038290 -0.382569 -0.008850
			CHANNELS 3 Zrotation Yrotation Xrotation
			JOINT RightFoot
			{
				OFFSET 0.015774 -0.398415 -0.042312
				CHANNELS 3 Zrotation Yrotation Xrotation
				JOINT RightToe
				{
					OFFSET -0.025372 -0.048144 0.123348
					CHANNELS 3 Zrotation Yrotation Xrotation
					End Site
					{
						OFFSET 0.000000 0.000000 0.000000
					}
				}
			}
		}
	}
	JOINT Spine
	{
		OFFSET -0.002533 0.108963 -0.026696
		CHANNELS 3 Zrotation Yrotation Xrotation
		JOINT Spine1
		{
			OFFSET 0.005487 0.135180 0.001092
			CHANNELS 3 Zrotation Yrotation Xrotation
			JOINT Spine2
			{
				OFFSET 0.001457 0.052922 0.025425
				CHANNELS 3 Zrotation Yrotation Xrotation
				JOINT Neck
				{
					OFFSET -0.002778 0.213870 -0.042857
					CHANNELS 3 Zrotation Yrotation Xrotation
					JOINT Head
					{
						OFFSET 0.005152 0.064970 0.051349
						CHANNELS 3 Zrotation Yrotation Xrotation
						End Site
						{
							OFFSET 0.000000 0.000000 0.000000
						}
					}
				}
				JOINT LeftShoulder
				{
					OFFSET 0.078845 0.121749 -0.034090
					CHANNELS 3 Zrotation Yrotation Xrotation
					JOINT LeftArm
					{
						OFFSET 0.090977 0.030469 -0.008868
						CHANNELS 3 Zrotation Yrotation Xrotation
						JOINT LeftForeArm
						{
							OFFSET 0.259612 -0.012772 -0.027456
							CHANNELS 3 Zrotation Yrotation Xrotation
							JOINT LeftHand
							{
								OFFSET 0.249234 0.008986 -0.001171
								CHANNELS 3 Zrotation Yrotation Xrotation
								End Site
								{
									OFFSET 0.000000 0.000000 0.000000
								}
							}
						}
					}
				}
				JOINT RightShoulder
				{
					OFFSET -0.081759 0.118833 -0.038615
					CHANNELS 3 Zrotation Yrotation Xrotation
					JOINT RightArm
					{
						OFFSET -0.096012 0.032551 -0.009143
						CHANNELS 3 Zrotation Yrotation Xrotation
						JOINT RightForeArm
						{
							OFFSET -0.253742 -0.013329 -0.021401
							CHANNELS 3 Zrotation Yrotation Xrotation
							JOINT RightHand
							{
								OFFSET -0.255298 0.007772 -0.005559
								CHANNELS 3 Zrotation Yrotation Xrotation
								End Site
								{
									OFFSET 0.000000 0.000000 0.000000
								}
							}
						}
					}
				}
			}
		}
	}
}
MOTION
Frames: 13
Frame Time: 0.050000
0.000000 0.937904 0.000000 -0.407592 -2.439472 7.689884 6.192623 -0.334779 -4.607692 0.273985 0.162796 -5.241488 3.185985 9.014707 9.522775 0.000000 0.000000 0.000000 -5.273497 0.654886 -7.393428 -1.992955 0.057390 -2.422114 -0.150000 -4.744101 9.648490 0.000000 0.000000 0.000000 5.479255 0.278562 -5.131443 -2.230650 1.035549 -3.961027 -3.579807 4.223679 4.889924 5.291560 -2.286545 -11.916168 0.000000 0.000000 0.000000 -16.178495 -2.367531 -1.101489 -56.467401 -6.222649 -3.729608 -5.956351 -15.330212 1.282917 0.000000 0.000000 0.000000 13.926601 -4.447452 -2.841600 63.964652 5.933418 -2.732483 4.668173 19.167846 1.456836 0.000000 0.000000 0.000000 
0.000158 0.937289 -0.000045 -0.544099 -3.429813 8.316027 5.938895 -0.314852 -4.041202 1.048550 0.170654 -6.509018 3.531690 9.539783 9.662027 0.000000 0.000000 0.000000 -5.204897 0.738213 -8.488913 -2.133635 0.092840 -1.921118 0.645600 -3.550243 10.353995 0.000000 0.000000 0.000000 6.493626 0.313828 -5.407161 -2.801931 1.260595 -4.706145 -4.320356 4.842790 4.708290 5.146939 -2.138575 -12.122678 0.000000 0.000000 0.000000 -17.123842 -1.934404 -1.489250 -55.439889 -6.287915 -3.569128 -5.804893 -14.996291 1.229436 0.000000 0.000000 0.000000 13.539741 -5.438065 -3.265866 65.161461 4.966650 -3.232524 5.115327 18.886540 1.502639 0.000000 0.000000 0.000000 
0.000197 0.937246 -0.000177 -0.185777 -3.059320 8.062657 5.651719 -0.329065 -4.294239 1.061495 0.104843 -5.098311 3.236806 8.892165 8.747878 0.000000 0.000000 0.000000 -5.439538 0.727544 -8.540626 -2.256259 0.134531 -1.415553 0.170804 -4.249346 9.838722 0.000000 0.000000 0.000000 5.924659 0.258112 -4.893059 -2.264843 1.035153 -5.585299 -4.674992 4.239821 4.786363 4.645608 -1.952884 -11.328818 0.000000 0.000000 0.000000 -17.032648 -2.272907 -1.227557 -55.555023 -6.228697 -3.630144 -5.351600 -13.901105 1.093959 0.000000 0.000000 0.000000 14.465489 -4.397986 -2.896856 63.868867 4.441254 -3.559183 4.682822 19.272274 1.461208 0.000000 0.000000 0.000000 
0.000089 0.937280 -0.000214 -0.150731 -2.967809 8.331050 5.789081 -0.336760 -4.404438 0.804001 0.138287 -5.469624 3.209951 8.904649 9.010223 0.000000 0.000000 0.000000 -5.571798 0.774280 -9.400484 -2.385194 0.153696 -1.283609 0.255219 -4.272021 10.365899 0.000000 0.000000 0.000000 6.025606 0.244837 -4.810827 -2.598860 1.175241 -5.322461 -4.436885 3.443964 3.705222 3.940786 -1.692764 -10.105321 0.000000 0.000000 0.000000 -17.157576 -1.962310 -1.263507 -55.841908 -6.754168 -3.302169 -4.332358 -13.284236 0.938927 0.000000 0.000000 0.000000 13.463606 -4.241961 -2.864344 64.188366 4.045983 -3.686367 5.550349 19.703045 1.594969 0.000000 0.000000 0.000000 
-0.000158 0.937877 -0.000316 -0.039489 -2.366965 8.106137 5.597543 -0.345395 -4.463371 0.909047 0.118032 -5.151563 2.923563 8.441170 8.906626 0.000000 0.000000 0.000000 -5.496135 0.756950 -9.251287 -2.586405 0.174215 -1.279509 -0.163436 -5.084121 10.525918 0.000000 0.000000 0.000000 5.649934 0.218344 -4.561001 -2.218739 1.026759 -5.093048 -4.541460 2.954499 3.463948 3.409593 -1.318577 -10.298081 0.000000 0.000000 0.000000 -17.341833 -2.142473 -1.174928 -55.545845 -7.382585 -2.966696 -4.986113 -13.045400 0.995538 0.000000 0.000000 0.000000 13.358998 -4.452916 -2.978579 63.865693 3.669349 -3.858827 5.916186 19.838727 1.657905 0.000000 0.000000 0.000000 
-0.000448 0.938293 -0.000370 0.010747 -2.224807 8.286480 5.703456 -0.354151 -4.611357 0.796642 0.121983 -5.069270 3.029612 8.647750 8.960987 0.000000 0.000000 0.000000 -5.442165 0.769127 -9.433765 -2.887429 0.183038 -1.556949 -0.196593 -5.341882 11.125138 0.000000 0.000000 0.000000 5.580578 0.218732 -4.615414 -2.188278 1.015110 -5.307372 -4.390923 2.713785 3.499988 3.196182 -1.219083 -10.069101 0.000000 0.000000 0.000000 -17.660668 -1.970174 -1.253261 -55.152447 -7.586874 -2.848111 -5.184765 -13.074558 1.023507 0.000000 0.000000 0.000000 12.894114 -4.393971 -2.929137 63.977404 3.327255 -4.053421 6.163940 20.058433 1.710006 0.000000 0.000000 0.000000 
-0.000668 0.938659 -0.000454 0.003772 -1.856656 8.280982 5.624379 -0.367199 -4.804445 0.809013 0.117753 -4.981705 3.030396 8.763906 9.350026 0.000000 0.000000 0.000000 -5.250818 0.766949 -9.377751 -3.026916 0.187181 -1.704948 -0.277770 -5.474958 11.193514 0.000000 0.000000 0.000000 5.506708 0.203490 -4.473196 -2.121585 0.991955 -5.191417 -4.426949 2.301294 3.467628 3.187479 -1.162380 -10.601393 0.000000 0.000000 0.000000 -17.657345 -1.954072 -1.217484 -55.077503 -7.716697 -2.781866 -5.907868 -13.695228 1.159895 0.000000 0.000000 0.000000 12.826254 -4.365542 -2.938209 63.992547 3.025530 -4.224850 6.232615 20.371331 1.744678 0.000000 0.000000 0.000000 
-0.000778 0.938928 -0.000560 -0.086539 -1.590298 8.445642 5.594573 -0.384077 -5.073816 0.928378 0.097574 -4.689257 3.128424 8.936035 9.260721 0.000000 0.000000 0.000000 -5.058380 0.778158 -9.481664 -2.997694 0.185458 -1.710444 -0.377736 -5.645609 11.228831 0.000000 0.000000 0.000000 5.403380 0.201329 -4.506793 -2.016553 0.951149 -5.132269 -4.328747 2.120076 3.351036 3.137495 -1.135169 -10.573004 0.000000 0.000000 0.000000 -17.703872 -2.123552 -1.126718 -54.905525 -7.608948 -2.807701 -6.770863 -14.439122 1.330677 0.000000 0.000000 0.000000 12.867439 -4.324361 -2.933879 64.074068 2.843302 -4.317846 6.192499 20.415128 1.739049 0.000000 0.000000 0.000000 
-0.000880 0.939171 -0.000654 -0.133597 -1.525239 8.359962 5.602170 -0.386540 -5.147160 0.906231 0.085821 -4.380527 3.218528 9.046173 9.022394 0.000000 0.000000 0.000000 -4.946110 0.766543 -9.247971 -2.924493 0.160193 -2.008729 -0.338097 -5.579122 11.287325 0.000000 0.000000 0.000000 5.352732 0.178674 -4.248394 -2.074675 0.976629 -5.314034 -4.057620 2.156411 3.524010 3.159283 -1.114849 -10.889961 0.000000 0.000000 0.000000 -17.602084 -2.284176 -1.025646 -54.900808 -7.657497 -2.807050 -7.351684 -14.845422 1.444267 0.000000 0.000000 0.000000 13.133032 -4.111359 -2.859523 63.632546 2.912815 -4.278854 6.221239 20.207087 1.723795 0.000000 0.000000 0.000000 
-0.001020 0.939375 -0.000697 -0.164639 -1.477477 8.236623 5.611536 -0.382460 -5.084444 0.810696 0.087682 -4.265937 3.379904 9.333313 9.044205 0.000000 0.000000 0.000000 -4.949830 0.756045 -9.106728 -2.819038 0.141949 -2.163328 -0.319375 -5.596403 11.468286 0.000000 0.000000 0.000000 5.377679 0.156436 -3.977690 -2.101636 0.988723 -5.395980 -3.964184 2.275055 3.719478 3.275951 -1.143525 -11.238460 0.000000 0.000000 0.000000 -17.389551 -2.525969 -0.898720 -54.802920 -7.876409 -2.721966 -8.138858 -15.194146 1.579742 0.000000 0.000000 0.000000 13.332641 -3.773173 -2.696011 63.383129 3.272198 -4.089021 5.991910 20.063166 1.679198 0.000000 0.000000 0.000000 
-0.001163 0.939422 -0.000676 -0.255157 -1.441823 8.216405 5.822995 -0.377472 -5.041052 0.670175 0.090825 -4.097364 3.482492 9.483150 8.905465 0.000000 0.000000 0.000000 -4.828889 0.752469 -8.991412 -2.791275 0.129911 -2.318652 -0.349455 -5.697390 11.611945 0.000000 0.000000 0.000000 5.442274 0.147313 -3.874566 -2.114710 0.994550 -5.393948 -3.908283 2.503097 3.830371 3.411029 -1.180416 -11.524770 0.000000 0.000000 0.000000 -17.361845 -2.907950 -0.750075 -54.644309 -7.822126 -2.742005 -8.581717 -15.490767 1.665127 0.000000 0.000000 0.000000 13.518308 -3.661249 -2.621783 63.390824 3.812140 -3.798764 5.740108 19.663340 1.610921 0.000000 0.000000 0.000000 
-0.001261 0.939290 -0.000581 -0.374106 -1.474217 8.321306 6.167043 -0.376218 -5.114771 0.513580 0.097765 -3.984761 3.543575 9.562884 8.805444 0.000000 0.000000 0.000000 -4.718765 0.763238 -9.081193 -2.794957 0.135155 -2.235868 -0.240127 -5.477607 11.571120 0.000000 0.000000 0.000000 5.474965 0.144857 -3.869503 -2.097312 0.986454 -5.237610 -3.690238 2.589219 3.683813 3.938400 -1.458855 -12.005203 0.000000 0.000000 0.000000 -17.292995 -3.102016 -0.653906 -54.719635 -7.717200 -2.777354 -8.913431 -15.594382 1.719260 0.000000 0.000000 0.000000 13.358131 -3.458302 -2.505547 63.523211 4.280189 -3.527839 5.393502 19.729515 1.562556 0.000000 0.000000 0.000000 
-0.001292 0.939341 -0.000430 -0.560007 -1.477520 8.348956 6.408769 -0.368596 -5.001267 0.448755 0.099424 -3.905124 3.587998 9.649149 8.862941 0.000000 0.000000 0.000000 -4.452191 0.774132 -9.115910 -2.979857 0.146321 -2.290949 -0.024828 -5.142923 11.800697 0.000000 0.000000 0.000000 5.504755 0.134448 -3.758666 -1.905957 0.907425 -5.347454 -3.631048 2.862368 3.586249 4.473954 -1.749485 -12.250221 0.000000 0.000000 0.000000 -17.509891 -3.345295 -0.616761 -54.511330 -7.522426 -2.831745 -9.148917 -15.577964 1.741671 0.000000 0.000000 0.000000 13.797474 -3.382573 -2.472066 63.342222 4.815846 -3.212961 4.989113 19.747260 1.510152 0.000000 0.000000 0.000000 
